<mxfile host="65bd71144e">
    <diagram id="9wlTH6A3L1Ti6fgQIfKe" name="Page-1">
        <mxGraphModel dx="552" dy="5106" grid="1" gridSize="10" guides="1" tooltips="1" connect="1" arrows="1" fold="1" page="1" pageScale="1" pageWidth="3300" pageHeight="4681" math="0" shadow="0">
            <root>
                <mxCell id="0"/>
                <mxCell id="48" value="bg" parent="0"/>
                <mxCell id="49" value="" style="rounded=1;whiteSpace=wrap;html=1;arcSize=1;fillColor=#000000;strokeColor=none;" parent="48" vertex="1">
                    <mxGeometry x="540" y="-190" width="440" height="260" as="geometry"/>
                </mxCell>
                <mxCell id="1" value="body" parent="0"/>
                <mxCell id="39" value="" style="rounded=1;whiteSpace=wrap;html=1;arcSize=1;fillColor=#1A1A1A;strokeColor=none;" parent="1" vertex="1">
                    <mxGeometry x="715.5" y="-160" width="100" height="92.5" as="geometry"/>
                </mxCell>
                <mxCell id="2" value="" style="rounded=1;whiteSpace=wrap;html=1;arcSize=1;fillColor=#1A1A1A;strokeColor=none;" parent="1" vertex="1">
                    <mxGeometry x="564" y="-30" width="409" height="90" as="geometry"/>
                </mxCell>
                <mxCell id="3" value="" style="rounded=1;whiteSpace=wrap;html=1;arcSize=1;fillColor=#1A1A1A;strokeColor=none;" parent="1" vertex="1">
                    <mxGeometry x="564" y="-148.75" width="100" height="70" as="geometry"/>
                </mxCell>
                <mxCell id="37" value="1.2: create or&lt;br&gt;activate if existing" style="edgeStyle=none;html=1;endArrow=open;endFill=0;strokeColor=#FF00FF;fontColor=#FF00FF;labelBackgroundColor=none;align=left;" parent="1" source="13" target="36" edge="1">
                    <mxGeometry x="-0.6447" y="-83" relative="1" as="geometry">
                        <mxPoint as="offset"/>
                    </mxGeometry>
                </mxCell>
                <mxCell id="52" value="&lt;span style=&quot;color: rgb(255, 0, 255);&quot;&gt;1.1: read&lt;br&gt;project info&lt;/span&gt;" style="edgeStyle=none;html=1;labelBackgroundColor=#000000;strokeColor=#FF00FF;fontColor=#FFFF00;endArrow=open;endFill=0;align=left;" parent="1" source="13" target="43" edge="1">
                    <mxGeometry x="-0.4599" y="-20" relative="1" as="geometry">
                        <mxPoint as="offset"/>
                    </mxGeometry>
                </mxCell>
                <mxCell id="13" value="1: shell" style="rounded=1;whiteSpace=wrap;html=1;strokeColor=#FF00FF;fillColor=#FF00FF;arcSize=1;absoluteArcSize=1;" parent="1" vertex="1">
                    <mxGeometry x="581.5" y="-122.75" width="65" height="18" as="geometry"/>
                </mxCell>
                <mxCell id="33" value="file system" style="text;html=1;strokeColor=none;fillColor=none;align=center;verticalAlign=middle;whiteSpace=wrap;rounded=0;fontColor=#666666;" parent="1" vertex="1">
                    <mxGeometry x="905" y="-30" width="68" height="20" as="geometry"/>
                </mxCell>
                <mxCell id="45" value="2.1: read dependencies" style="edgeStyle=none;html=1;strokeColor=#FF00FF;fontColor=#FF00FF;endArrow=open;endFill=0;labelBackgroundColor=none;" parent="1" source="35" target="43" edge="1">
                    <mxGeometry x="0.4829" y="62" relative="1" as="geometry">
                        <mxPoint as="offset"/>
                    </mxGeometry>
                </mxCell>
                <mxCell id="46" value="2.2: install to" style="edgeStyle=none;html=1;strokeColor=#FF00FF;fontColor=#FF00FF;endArrow=open;endFill=0;labelBackgroundColor=#1A1A1A;" parent="1" source="35" target="36" edge="1">
                    <mxGeometry x="0.3521" y="-10" relative="1" as="geometry">
                        <mxPoint as="offset"/>
                    </mxGeometry>
                </mxCell>
                <mxCell id="35" value="2: install" style="rounded=1;whiteSpace=wrap;html=1;strokeColor=#FF00FF;fillColor=#FF00FF;arcSize=1;absoluteArcSize=1;" parent="1" vertex="1">
                    <mxGeometry x="736" y="-93.5" width="65" height="18" as="geometry"/>
                </mxCell>
                <mxCell id="36" value="/{PATH}/.cache/pypoetry/virtualenvs" style="rounded=1;whiteSpace=wrap;html=1;strokeColor=#FF00FF;fillColor=#FF00FF;arcSize=1;absoluteArcSize=1;" parent="1" vertex="1">
                    <mxGeometry x="570" y="30" width="210" height="18" as="geometry"/>
                </mxCell>
                <mxCell id="42" value="parent" style="edgeStyle=none;html=1;entryX=1;entryY=0.25;entryDx=0;entryDy=0;strokeColor=#FF00FF;fontColor=#FF00FF;endArrow=open;endFill=0;labelBackgroundColor=none;" parent="1" source="41" target="3" edge="1">
                    <mxGeometry x="0.2765" y="-10" relative="1" as="geometry">
                        <mxPoint as="offset"/>
                    </mxGeometry>
                </mxCell>
                <mxCell id="41" value="-2: exit" style="rounded=1;whiteSpace=wrap;html=1;strokeColor=#FF00FF;fillColor=#FF00FF;arcSize=1;absoluteArcSize=1;" parent="1" vertex="1">
                    <mxGeometry x="736" y="-129.5" width="65" height="18" as="geometry"/>
                </mxCell>
                <mxCell id="40" value="1.3: fork" style="edgeStyle=none;html=1;strokeColor=#FF00FF;fontColor=#FF00FF;endArrow=open;endFill=0;labelBackgroundColor=none;" parent="1" source="13" target="39" edge="1">
                    <mxGeometry x="0.2609" y="-12" relative="1" as="geometry">
                        <Array as="points"/>
                        <mxPoint y="1" as="offset"/>
                    </mxGeometry>
                </mxCell>
                <mxCell id="43" value="/{PROJ}/pyproject.toml" style="rounded=1;whiteSpace=wrap;html=1;strokeColor=#FF00FF;fillColor=#FF00FF;arcSize=1;absoluteArcSize=1;" parent="1" vertex="1">
                    <mxGeometry x="736" width="130" height="18" as="geometry"/>
                </mxCell>
                <mxCell id="51" value="the environment doesn't show in PS1 necessarily,&lt;br&gt;but if you're in the project dir and you edit the dependencies, it will edit the environment's dependencies" style="text;html=1;strokeColor=none;fillColor=none;align=left;verticalAlign=middle;whiteSpace=wrap;rounded=0;fontColor=#FFFF00;" parent="1" vertex="1">
                    <mxGeometry x="815" y="-158.75" width="140" height="100" as="geometry"/>
                </mxCell>
                <mxCell id="53" value="&lt;div style=&quot;&quot;&gt;&lt;span style=&quot;background-color: initial;&quot;&gt;poetry always searches first for&lt;/span&gt;&lt;/div&gt;&lt;div style=&quot;&quot;&gt;&lt;span style=&quot;background-color: initial;&quot;&gt;pyproject.toml&lt;/span&gt;&lt;/div&gt;" style="text;html=1;strokeColor=none;fillColor=none;align=left;verticalAlign=middle;whiteSpace=wrap;rounded=0;fontColor=#FFFF00;" parent="1" vertex="1">
                    <mxGeometry x="800" y="16.5" width="170" height="45" as="geometry"/>
                </mxCell>
                <mxCell id="54" value="parent" style="text;html=1;strokeColor=none;fillColor=none;align=center;verticalAlign=middle;whiteSpace=wrap;rounded=0;fontColor=#666666;" parent="1" vertex="1">
                    <mxGeometry x="564" y="-148.75" width="68" height="20" as="geometry"/>
                </mxCell>
                <mxCell id="56" value="child" style="text;html=1;strokeColor=none;fillColor=none;align=center;verticalAlign=middle;whiteSpace=wrap;rounded=0;fontColor=#666666;" parent="1" vertex="1">
                    <mxGeometry x="715.5" y="-158.75" width="68" height="20" as="geometry"/>
                </mxCell>
            </root>
        </mxGraphModel>
    </diagram>
</mxfile>